<svg width="118" height="20" viewBox="0 0 118 20" fill="none" xmlns="http://www.w3.org/2000/svg">
<path d="M12.86 1.52001V1.92001C12.6067 1.97334 12.3333 2.12667 12.04 2.38001C11.76 2.63334 11.5067 3.06001 11.28 3.66001L6.58 15.78C6.55333 15.78 6.52666 15.78 6.5 15.78C6.47333 15.78 6.44666 15.78 6.42 15.78C6.39333 15.78 6.36666 15.78 6.34 15.78C6.31333 15.78 6.28666 15.78 6.26 15.78L1.38 3.20001C1.18 2.69334 0.953328 2.36001 0.699995 2.20001C0.446662 2.02667 0.213328 1.93334 -4.88386e-06 1.92001V1.52001C0.266662 1.53334 0.593328 1.54667 0.979995 1.56001C1.38 1.57334 1.76666 1.58001 2.14 1.58001C2.66 1.58001 3.14666 1.57334 3.6 1.56001C4.05333 1.54667 4.42 1.53334 4.7 1.52001V1.92001C4.24666 1.93334 3.9 1.98667 3.66 2.08001C3.43333 2.17334 3.30666 2.34001 3.28 2.58001C3.26666 2.80667 3.34666 3.14667 3.52 3.60001L7.24 13.46L6.92 13.8L10.4 4.76001C10.68 4.04001 10.8133 3.48001 10.8 3.08001C10.7867 2.66667 10.6333 2.37334 10.34 2.20001C10.0467 2.02667 9.62 1.93334 9.06 1.92001V1.52001C9.44666 1.53334 9.84 1.54667 10.24 1.56001C10.64 1.57334 11.0133 1.58001 11.36 1.58001C11.7067 1.58001 11.9933 1.57334 12.22 1.56001C12.4467 1.54667 12.66 1.53334 12.86 1.52001ZM16.9662 5.10001C18.1396 5.10001 19.0529 5.46001 19.7062 6.18001C20.3729 6.88667 20.7062 7.99334 20.7062 9.50001H13.6462L13.6262 9.12001H18.7862C18.8129 8.46667 18.7596 7.86667 18.6262 7.32001C18.4929 6.76001 18.2796 6.31334 17.9862 5.98001C17.7062 5.64667 17.3396 5.48001 16.8862 5.48001C16.2729 5.48001 15.7262 5.78667 15.2462 6.40001C14.7796 7.01334 14.4996 7.98667 14.4062 9.32001L14.4662 9.40001C14.4396 9.60001 14.4196 9.82001 14.4062 10.06C14.3929 10.3 14.3862 10.54 14.3862 10.78C14.3862 11.6867 14.5329 12.4667 14.8262 13.12C15.1196 13.7733 15.4996 14.2733 15.9662 14.62C16.4462 14.9533 16.9396 15.12 17.4462 15.12C17.8462 15.12 18.2262 15.06 18.5862 14.94C18.9462 14.8067 19.2796 14.5933 19.5862 14.3C19.8929 14.0067 20.1596 13.6133 20.3862 13.12L20.7862 13.28C20.6396 13.72 20.3996 14.1467 20.0662 14.56C19.7329 14.9733 19.3129 15.3133 18.8062 15.58C18.2996 15.8333 17.7129 15.96 17.0462 15.96C16.0862 15.96 15.2596 15.74 14.5662 15.3C13.8862 14.86 13.3596 14.2533 12.9862 13.48C12.6262 12.6933 12.4462 11.7933 12.4462 10.78C12.4462 9.60667 12.6329 8.60001 13.0062 7.76001C13.3796 6.90667 13.9062 6.25334 14.5862 5.80001C15.2662 5.33334 16.0596 5.10001 16.9662 5.10001ZM25.4034 7.15256e-06V13.82C25.4034 14.38 25.5168 14.76 25.7434 14.96C25.9834 15.16 26.3768 15.26 26.9234 15.26V15.68C26.6968 15.6667 26.3501 15.6533 25.8834 15.64C25.4301 15.6133 24.9701 15.6 24.5034 15.6C24.0501 15.6 23.5901 15.6133 23.1234 15.64C22.6568 15.6533 22.3101 15.6667 22.0834 15.68V15.26C22.6301 15.26 23.0168 15.16 23.2434 14.96C23.4834 14.76 23.6034 14.38 23.6034 13.82V2.40001C23.6034 1.80001 23.4968 1.36001 23.2834 1.08001C23.0701 0.786674 22.6701 0.640007 22.0834 0.640007V0.220007C22.5101 0.260007 22.9234 0.280007 23.3234 0.280007C23.7101 0.280007 24.0768 0.260007 24.4234 0.220007C24.7834 0.166674 25.1101 0.0933409 25.4034 7.15256e-06ZM32.6508 5.10001C33.5041 5.10001 34.2708 5.28667 34.9508 5.66001C35.6308 6.03334 36.1708 6.62001 36.5708 7.42001C36.9841 8.22001 37.1908 9.26001 37.1908 10.54C37.1908 11.82 36.9841 12.86 36.5708 13.66C36.1708 14.4467 35.6308 15.0267 34.9508 15.4C34.2708 15.7733 33.5041 15.96 32.6508 15.96C31.8108 15.96 31.0441 15.7733 30.3508 15.4C29.6708 15.0267 29.1241 14.4467 28.7108 13.66C28.3108 12.86 28.1108 11.82 28.1108 10.54C28.1108 9.26001 28.3108 8.22001 28.7108 7.42001C29.1241 6.62001 29.6708 6.03334 30.3508 5.66001C31.0441 5.28667 31.8108 5.10001 32.6508 5.10001ZM32.6508 5.50001C31.8908 5.50001 31.2641 5.89334 30.7708 6.68001C30.2908 7.46667 30.0508 8.75334 30.0508 10.54C30.0508 12.3267 30.2908 13.6133 30.7708 14.4C31.2641 15.1733 31.8908 15.56 32.6508 15.56C33.4108 15.56 34.0308 15.1733 34.5108 14.4C35.0041 13.6133 35.2508 12.3267 35.2508 10.54C35.2508 8.75334 35.0041 7.46667 34.5108 6.68001C34.0308 5.89334 33.4108 5.50001 32.6508 5.50001ZM49.2483 1.64001C49.7549 1.64001 50.1749 1.70001 50.5083 1.82001C50.8416 1.92667 51.1149 2.06667 51.3283 2.24001C51.5016 2.37334 51.6416 2.52001 51.7483 2.68001C51.8549 2.84001 51.9349 3.00001 51.9883 3.16001C52.0416 3.32001 52.0683 3.47334 52.0683 3.62001C52.0683 3.95334 51.9483 4.21334 51.7083 4.40001C51.4816 4.58667 51.2283 4.68001 50.9483 4.68001C50.6816 4.68001 50.4416 4.59334 50.2283 4.42001C50.0149 4.24667 49.9083 4.00001 49.9083 3.68001C49.9083 3.38667 50.0083 3.14001 50.2083 2.94001C50.4083 2.72667 50.6616 2.60667 50.9683 2.58001C50.9149 2.40667 50.7483 2.26001 50.4683 2.14001C50.2016 2.00667 49.8616 1.94001 49.4483 1.94001C48.7683 1.94001 48.2083 2.14667 47.7683 2.56001C47.3416 2.96001 47.1283 3.54667 47.1283 4.32001C47.1283 4.69334 47.1949 5.07334 47.3283 5.46001C47.4749 5.84667 47.7483 6.22667 48.1483 6.60001C48.3749 6.56001 48.6083 6.53334 48.8483 6.52001C49.0883 6.49334 49.2683 6.48001 49.3883 6.48001C49.6283 6.48001 49.8216 6.52001 49.9683 6.60001C50.1149 6.68001 50.1883 6.79334 50.1883 6.94001C50.1883 7.06001 50.1349 7.15334 50.0283 7.22001C49.9349 7.28667 49.8016 7.32001 49.6283 7.32001C49.3749 7.32001 49.1083 7.26667 48.8283 7.16001C48.5483 7.04001 48.3283 6.94667 48.1683 6.88001C47.3949 7.10667 46.7683 7.48001 46.2883 8.00001C45.8083 8.50667 45.5683 9.22667 45.5683 10.16C45.5683 11.08 45.8083 11.86 46.2883 12.5C46.7683 13.14 47.4083 13.6333 48.2083 13.98C49.0216 14.3133 49.9283 14.48 50.9283 14.48C51.6349 14.48 52.3016 14.4 52.9283 14.24C53.5683 14.0667 54.1283 13.82 54.6083 13.5C55.1016 13.18 55.4883 12.8 55.7683 12.36C56.0483 11.9067 56.1883 11.3933 56.1883 10.82C56.1883 10.5667 56.1349 10.2467 56.0283 9.86001C55.9216 9.46001 55.7016 9.07334 55.3683 8.70001C55.0349 8.31334 54.5216 8.01334 53.8283 7.80001L54.0683 7.60001C55.0416 7.89334 55.7349 8.36667 56.1483 9.02001C56.5616 9.66001 56.7683 10.38 56.7683 11.18C56.7683 11.98 56.5283 12.7467 56.0483 13.48C55.5683 14.2133 54.8749 14.8133 53.9683 15.28C53.0616 15.7333 51.9616 15.96 50.6683 15.96C49.8016 15.96 48.9749 15.8467 48.1883 15.62C47.4149 15.3933 46.7283 15.0667 46.1283 14.64C45.5283 14.2 45.0549 13.6733 44.7083 13.06C44.3616 12.4467 44.1883 11.7533 44.1883 10.98C44.1883 10.26 44.3283 9.64667 44.6083 9.14001C44.8883 8.62001 45.2349 8.19334 45.6483 7.86001C46.0616 7.52667 46.4749 7.27334 46.8883 7.10001C47.3016 6.91334 47.6349 6.78667 47.8883 6.72001C47.4483 6.52001 47.0749 6.28667 46.7683 6.02001C46.4749 5.74001 46.2483 5.44001 46.0883 5.12001C45.9416 4.78667 45.8683 4.46001 45.8683 4.14001C45.8683 3.82001 45.9416 3.51334 46.0883 3.22001C46.2349 2.91334 46.4483 2.64001 46.7283 2.40001C47.0083 2.16001 47.3549 1.97334 47.7683 1.84001C48.1949 1.70667 48.6883 1.64001 49.2483 1.64001ZM56.5283 1.24001C57.3549 1.24001 58.0483 1.48001 58.6083 1.96001C59.1683 2.42667 59.4483 3.08667 59.4483 3.94001C59.4483 4.39334 59.3616 4.80001 59.1883 5.16001C59.0283 5.50667 58.8016 5.81334 58.5083 6.08001C58.2283 6.34667 57.9083 6.56667 57.5483 6.74001C57.2416 6.88667 56.8349 7.04667 56.3283 7.22001C55.8349 7.39334 55.3016 7.56667 54.7283 7.74001C54.1683 7.91334 53.6283 8.08667 53.1083 8.26001C52.6016 8.42001 52.1883 8.56001 51.8683 8.68001C51.3749 8.86667 50.9549 9.10001 50.6083 9.38001C50.2749 9.64667 50.1083 9.99334 50.1083 10.42C50.1083 10.7667 50.2083 11.06 50.4083 11.3C50.6083 11.54 50.8483 11.72 51.1283 11.84C51.4216 11.96 51.6949 12.02 51.9483 12.02C52.0683 12.02 52.2149 12.0067 52.3883 11.98C52.5749 11.94 52.7416 11.8867 52.8883 11.82C53.0349 11.7533 53.1216 11.6733 53.1483 11.58C52.9349 11.54 52.7216 11.4467 52.5083 11.3C52.3083 11.14 52.2083 10.8933 52.2083 10.56C52.2083 10.24 52.3149 9.98667 52.5283 9.80001C52.7416 9.61334 53.0016 9.52001 53.3083 9.52001C53.6283 9.52001 53.8816 9.62001 54.0683 9.82001C54.2683 10.02 54.3683 10.28 54.3683 10.6C54.3683 10.9733 54.2416 11.2933 53.9883 11.56C53.7483 11.8133 53.4416 12.0067 53.0683 12.14C52.7083 12.26 52.3483 12.32 51.9883 12.32C51.6149 12.32 51.2349 12.24 50.8483 12.08C50.4616 11.92 50.1416 11.6733 49.8883 11.34C49.6349 10.9933 49.5083 10.54 49.5083 9.98001C49.5083 9.51334 49.6083 9.10001 49.8083 8.74001C50.0216 8.38001 50.3349 8.06001 50.7483 7.78001C51.1616 7.50001 51.6683 7.26001 52.2683 7.06001C52.6683 6.92667 53.1549 6.78001 53.7283 6.62001C54.3016 6.46001 54.8883 6.28667 55.4883 6.10001C56.1016 5.91334 56.6549 5.70667 57.1483 5.48001C57.8149 5.17334 58.2683 4.86001 58.5083 4.54001C58.7483 4.22001 58.8683 3.89334 58.8683 3.56001C58.8683 3.17334 58.7616 2.83334 58.5483 2.54001C58.3349 2.23334 58.0483 1.99334 57.6883 1.82001C57.3416 1.63334 56.9616 1.54001 56.5483 1.54001C56.3883 1.54001 56.2549 1.55334 56.1483 1.58001C56.0416 1.60667 55.9749 1.65334 55.9483 1.72001C56.1349 1.81334 56.2749 1.94667 56.3683 2.12001C56.4616 2.29334 56.5083 2.46667 56.5083 2.64001C56.5083 2.92001 56.3949 3.15334 56.1683 3.34001C55.9549 3.52667 55.6949 3.62001 55.3883 3.62001C55.1349 3.62001 54.8949 3.54001 54.6683 3.38001C54.4416 3.20667 54.3283 2.95334 54.3283 2.62001C54.3283 2.27334 54.4416 2.00001 54.6683 1.80001C54.9083 1.60001 55.1949 1.46001 55.5283 1.38001C55.8749 1.28667 56.2083 1.24001 56.5283 1.24001ZM76.8834 1.52001V1.92001C76.6301 1.97334 76.3568 2.12667 76.0634 2.38001C75.7834 2.63334 75.5301 3.06001 75.3034 3.66001L70.6034 15.78C70.5768 15.78 70.5501 15.78 70.5234 15.78C70.4968 15.78 70.4701 15.78 70.4434 15.78C70.4168 15.78 70.3901 15.78 70.3634 15.78C70.3368 15.78 70.3101 15.78 70.2834 15.78L65.4034 3.20001C65.2034 2.69334 64.9768 2.36001 64.7234 2.20001C64.4701 2.02667 64.2368 1.93334 64.0234 1.92001V1.52001C64.2901 1.53334 64.6168 1.54667 65.0034 1.56001C65.4034 1.57334 65.7901 1.58001 66.1634 1.58001C66.6834 1.58001 67.1701 1.57334 67.6234 1.56001C68.0768 1.54667 68.4434 1.53334 68.7234 1.52001V1.92001C68.2701 1.93334 67.9234 1.98667 67.6834 2.08001C67.4568 2.17334 67.3301 2.34001 67.3034 2.58001C67.2901 2.80667 67.3701 3.14667 67.5434 3.60001L71.2634 13.46L70.9434 13.8L74.4234 4.76001C74.7034 4.04001 74.8368 3.48001 74.8234 3.08001C74.8101 2.66667 74.6568 2.37334 74.3634 2.20001C74.0701 2.02667 73.6434 1.93334 73.0834 1.92001V1.52001C73.4701 1.53334 73.8634 1.54667 74.2634 1.56001C74.6634 1.57334 75.0368 1.58001 75.3834 1.58001C75.7301 1.58001 76.0168 1.57334 76.2434 1.56001C76.4701 1.54667 76.6834 1.53334 76.8834 1.52001ZM81.0297 5.10001C81.883 5.10001 82.6497 5.28667 83.3297 5.66001C84.0097 6.03334 84.5497 6.62001 84.9497 7.42001C85.363 8.22001 85.5697 9.26001 85.5697 10.54C85.5697 11.82 85.363 12.86 84.9497 13.66C84.5497 14.4467 84.0097 15.0267 83.3297 15.4C82.6497 15.7733 81.883 15.96 81.0297 15.96C80.1897 15.96 79.423 15.7733 78.7297 15.4C78.0497 15.0267 77.503 14.4467 77.0897 13.66C76.6897 12.86 76.4897 11.82 76.4897 10.54C76.4897 9.26001 76.6897 8.22001 77.0897 7.42001C77.503 6.62001 78.0497 6.03334 78.7297 5.66001C79.423 5.28667 80.1897 5.10001 81.0297 5.10001ZM81.0297 5.50001C80.2697 5.50001 79.643 5.89334 79.1497 6.68001C78.6697 7.46667 78.4297 8.75334 78.4297 10.54C78.4297 12.3267 78.6697 13.6133 79.1497 14.4C79.643 15.1733 80.2697 15.56 81.0297 15.56C81.7897 15.56 82.4097 15.1733 82.8897 14.4C83.383 13.6133 83.6297 12.3267 83.6297 10.54C83.6297 8.75334 83.383 7.46667 82.8897 6.68001C82.4097 5.89334 81.7897 5.50001 81.0297 5.50001ZM90.7667 19.44C90.06 19.44 89.3934 19.3667 88.7667 19.22C88.14 19.0733 87.6334 18.84 87.2467 18.52C86.8734 18.2133 86.6867 17.82 86.6867 17.34C86.6867 16.8733 86.8734 16.4733 87.2467 16.14C87.62 15.8067 88.1267 15.5533 88.7667 15.38L88.8867 15.7C88.5934 15.7933 88.36 15.98 88.1867 16.26C88.0134 16.54 87.9267 16.8533 87.9267 17.2C87.9267 17.8133 88.2067 18.28 88.7667 18.6C89.34 18.9333 90.08 19.1 90.9867 19.1C91.5867 19.1 92.1734 19.02 92.7467 18.86C93.32 18.7133 93.7934 18.46 94.1667 18.1C94.54 17.74 94.7267 17.2667 94.7267 16.68C94.7267 16.24 94.5667 15.88 94.2467 15.6C93.94 15.3067 93.3267 15.16 92.4067 15.16H90.9267C90.5 15.16 90.0867 15.1267 89.6867 15.06C89.2867 14.9933 88.96 14.8533 88.7067 14.64C88.4534 14.4267 88.3267 14.1 88.3267 13.66C88.3267 13.2067 88.5134 12.7733 88.8867 12.36C89.26 11.9333 89.9467 11.5 90.9467 11.06L91.1867 11.24C90.7334 11.48 90.34 11.7267 90.0067 11.98C89.6734 12.22 89.5067 12.5067 89.5067 12.84C89.5067 13.2667 89.8267 13.48 90.4667 13.48H92.9667C93.5267 13.48 94.04 13.56 94.5067 13.72C94.9867 13.88 95.3734 14.1333 95.6667 14.48C95.96 14.8267 96.1067 15.28 96.1067 15.84C96.1067 16.4667 95.9067 17.0533 95.5067 17.6C95.1067 18.1467 94.5067 18.5867 93.7067 18.92C92.92 19.2667 91.94 19.44 90.7667 19.44ZM90.8667 11.42C90.2134 11.42 89.62 11.3133 89.0867 11.1C88.5534 10.8733 88.1334 10.5267 87.8267 10.06C87.52 9.59334 87.3667 8.99334 87.3667 8.26001C87.3667 7.52667 87.52 6.92667 87.8267 6.46001C88.1334 5.99334 88.5534 5.65334 89.0867 5.44001C89.62 5.21334 90.2134 5.10001 90.8667 5.10001C91.5334 5.10001 92.1267 5.21334 92.6467 5.44001C93.18 5.65334 93.6 5.99334 93.9067 6.46001C94.2134 6.92667 94.3667 7.52667 94.3667 8.26001C94.3667 8.99334 94.2134 9.59334 93.9067 10.06C93.6 10.5267 93.18 10.8733 92.6467 11.1C92.1267 11.3133 91.5334 11.42 90.8667 11.42ZM90.8667 11.06C91.3734 11.06 91.7667 10.86 92.0467 10.46C92.34 10.06 92.4867 9.32667 92.4867 8.26001C92.4867 7.19334 92.34 6.46001 92.0467 6.06001C91.7667 5.66001 91.3734 5.46001 90.8667 5.46001C90.3734 5.46001 89.98 5.66001 89.6867 6.06001C89.3934 6.46001 89.2467 7.19334 89.2467 8.26001C89.2467 9.32667 89.3934 10.06 89.6867 10.46C89.98 10.86 90.3734 11.06 90.8667 11.06ZM93.7467 6.76001L93.3867 6.62001C93.5734 6.16667 93.8934 5.76667 94.3467 5.42001C94.8 5.07334 95.2734 4.90001 95.7667 4.90001C96.1134 4.90001 96.3934 5.00001 96.6067 5.20001C96.82 5.38667 96.9267 5.67334 96.9267 6.06001C96.9267 6.47334 96.8134 6.76667 96.5867 6.94001C96.3734 7.10001 96.1534 7.18001 95.9267 7.18001C95.7267 7.18001 95.54 7.11334 95.3667 6.98001C95.1934 6.83334 95.0934 6.60667 95.0667 6.30001C95.04 5.99334 95.1334 5.60001 95.3467 5.12001L95.6067 5.18001C95.0467 5.39334 94.6467 5.62001 94.4067 5.86001C94.1667 6.08667 93.9467 6.38667 93.7467 6.76001ZM106.733 5.16001V13.52C106.733 14.12 106.84 14.5667 107.053 14.86C107.28 15.14 107.68 15.28 108.253 15.28V15.7C107.84 15.66 107.426 15.64 107.013 15.64C106.626 15.64 106.253 15.66 105.893 15.7C105.546 15.74 105.226 15.8133 104.933 15.92V13.56C104.6 14.4267 104.126 15.0467 103.513 15.42C102.913 15.78 102.293 15.96 101.653 15.96C101.186 15.96 100.78 15.8933 100.433 15.76C100.086 15.6267 99.7998 15.44 99.5731 15.2C99.3198 14.9333 99.1465 14.5867 99.0531 14.16C98.9598 13.7333 98.9131 13.2067 98.9131 12.58V7.56001C98.9131 6.96001 98.8065 6.52001 98.5931 6.24001C98.3798 5.94667 97.9798 5.80001 97.3931 5.80001V5.38001C97.8198 5.42001 98.2331 5.44001 98.6331 5.44001C99.0198 5.44001 99.3865 5.42001 99.7331 5.38001C100.093 5.32667 100.42 5.25334 100.713 5.16001V13.02C100.713 13.4333 100.74 13.8133 100.793 14.16C100.846 14.5067 100.98 14.7867 101.193 15C101.406 15.2133 101.753 15.32 102.233 15.32C102.753 15.32 103.213 15.16 103.613 14.84C104.026 14.52 104.346 14.0867 104.573 13.54C104.813 12.9933 104.933 12.38 104.933 11.7V7.56001C104.933 6.96001 104.826 6.52001 104.613 6.24001C104.4 5.94667 104 5.80001 103.413 5.80001V5.38001C103.84 5.42001 104.253 5.44001 104.653 5.44001C105.04 5.44001 105.406 5.42001 105.753 5.38001C106.113 5.32667 106.44 5.25334 106.733 5.16001ZM114.134 5.10001C115.308 5.10001 116.221 5.46001 116.874 6.18001C117.541 6.88667 117.874 7.99334 117.874 9.50001H110.814L110.794 9.12001H115.954C115.981 8.46667 115.928 7.86667 115.794 7.32001C115.661 6.76001 115.448 6.31334 115.154 5.98001C114.874 5.64667 114.508 5.48001 114.054 5.48001C113.441 5.48001 112.894 5.78667 112.414 6.40001C111.948 7.01334 111.668 7.98667 111.574 9.32001L111.634 9.40001C111.608 9.60001 111.588 9.82001 111.574 10.06C111.561 10.3 111.554 10.54 111.554 10.78C111.554 11.6867 111.701 12.4667 111.994 13.12C112.288 13.7733 112.668 14.2733 113.134 14.62C113.614 14.9533 114.108 15.12 114.614 15.12C115.014 15.12 115.394 15.06 115.754 14.94C116.114 14.8067 116.448 14.5933 116.754 14.3C117.061 14.0067 117.328 13.6133 117.554 13.12L117.954 13.28C117.808 13.72 117.568 14.1467 117.234 14.56C116.901 14.9733 116.481 15.3133 115.974 15.58C115.468 15.8333 114.881 15.96 114.214 15.96C113.254 15.96 112.428 15.74 111.734 15.3C111.054 14.86 110.528 14.2533 110.154 13.48C109.794 12.6933 109.614 11.7933 109.614 10.78C109.614 9.60667 109.801 8.60001 110.174 7.76001C110.548 6.90667 111.074 6.25334 111.754 5.80001C112.434 5.33334 113.228 5.10001 114.134 5.10001Z" fill="black"/>
</svg>
